<svg width="14" height="10" viewBox="0 0 14 10" fill="none" xmlns="http://www.w3.org/2000/svg">
<path d="M3.73073 8.79624C4.3255 8.79624 4.80765 8.33194 4.80765 7.7592C4.80765 7.18647 4.3255 6.72217 3.73073 6.72217C3.13596 6.72217 2.65381 7.18647 2.65381 7.7592C2.65381 8.33194 3.13596 8.79624 3.73073 8.79624Z" stroke="#716E6B" stroke-linecap="round" stroke-linejoin="round"/>
<path d="M11.2691 8.79624C11.8638 8.79624 12.346 8.33194 12.346 7.7592C12.346 7.18647 11.8638 6.72217 11.2691 6.72217C10.6743 6.72217 10.1921 7.18647 10.1921 7.7592C10.1921 8.33194 10.6743 8.79624 11.2691 8.79624Z" stroke="#716E6B" stroke-linecap="round" stroke-linejoin="round"/>
<path d="M1.97139 7.75926H0.5V0.5H9.11538V7.75926H4.6985" stroke="#716E6B" stroke-linecap="round" stroke-linejoin="round"/>
<path d="M12.5871 7.75713H13.4229V5.16568L11.5311 2.88992C11.366 2.69005 11.1014 2.57422 10.8184 2.57422H9.11523V7.7594H9.96944" stroke="#716E6B" stroke-linecap="round" stroke-linejoin="round"/>
<path d="M9.11523 4.64819H11.2691" stroke="#716E6B" stroke-linecap="round" stroke-linejoin="round"/>
</svg>
