<svg width="15" height="20" viewBox="0 0 15 20" fill="none" xmlns="http://www.w3.org/2000/svg">
<path d="M7.33293 2.44824L8.73593 3.36578L10.3795 3.60212L10.8872 5.24258L11.9996 6.52158L11.3749 8.12032L11.4384 9.84419L9.97192 10.6505L8.95306 12.0129L7.33293 11.648L5.71279 12.0129L4.69394 10.6505L3.2308 9.84419L3.29093 8.12032L2.66626 6.52158L3.77864 5.24258L4.2864 3.60212L5.92992 3.36578L7.33293 2.44824Z" stroke="#716E6B" stroke-linecap="round" stroke-linejoin="round"/>
<path d="M9.87559 11.2383V15.9067L7.33317 14.4322L4.79565 15.9067V11.2383" stroke="#716E6B" stroke-linecap="round" stroke-linejoin="round"/>
<path d="M9.10901 6.28495C9.25301 6.56642 9.33301 6.88889 9.33301 7.23048C9.33301 8.36185 8.43701 9.28006 7.33301 9.28006C6.22901 9.28006 5.33301 8.36185 5.33301 7.23048C5.33301 6.09912 6.22901 5.18091 7.33301 5.18091" stroke="#716E6B" stroke-linecap="round" stroke-linejoin="round"/>
</svg>
