<svg width="158" height="190" viewBox="0 0 158 190" fill="none" xmlns="http://www.w3.org/2000/svg">
<path d="M79.43 111.074C53.4992 111.074 32.4824 89.9461 32.4824 63.8781C32.4824 37.8101 53.4992 16.6821 79.43 16.6821C105.361 16.6821 126.378 37.8101 126.378 63.8781C126.378 80.4081 117.948 94.9241 105.172 103.36" stroke="#DFBE71" stroke-miterlimit="10"/>
<path d="M0.5 189.772C0.5 177.878 3.146 166.592 7.8332 156.446" stroke="#DFBE71" stroke-miterlimit="10"/>
<path d="M44.4648 119.016C54.822 113.924 66.4644 111.074 78.7494 111.074C121.955 111.074 156.995 146.3 156.995 189.734" stroke="#DFBE71" stroke-miterlimit="10"/>
<path d="M12.7441 116.432C17.5248 116.432 21.4003 112.536 21.4003 107.73C21.4003 102.924 17.5248 99.0283 12.7441 99.0283C7.9634 99.0283 4.08789 102.924 4.08789 107.73C4.08789 112.536 7.9634 116.432 12.7441 116.432Z" stroke="#DFBE71" stroke-miterlimit="10"/>
<path d="M144.181 116.432C148.961 116.432 152.837 112.536 152.837 107.73C152.837 102.924 148.961 99.0283 144.181 99.0283C139.4 99.0283 135.524 102.924 135.524 107.73C135.524 112.536 139.4 116.432 144.181 116.432Z" stroke="#DFBE71" stroke-miterlimit="10"/>
<path d="M19.2891 189.012H138.246" stroke="#DFBE71" stroke-miterlimit="10"/>
<path d="M78.7432 0V190" stroke="#DFBE71" stroke-miterlimit="10"/>
</svg>
