<svg width="188" height="189" viewBox="0 0 188 189" fill="none" xmlns="http://www.w3.org/2000/svg">
<path d="M93.1899 139.481C118.107 139.481 138.306 119.175 138.306 94.1276C138.306 69.0797 118.107 48.7744 93.1899 48.7744C68.2732 48.7744 48.0742 69.0797 48.0742 94.1276C48.0742 119.175 68.2732 139.481 93.1899 139.481Z" stroke="#DFBE71" stroke-miterlimit="10"/>
<path d="M93.1899 47.501V140.754" stroke="#DFBE71" stroke-miterlimit="10"/>
<path d="M60.3682 61.1707L125.974 127.084" stroke="#DFBE71" stroke-miterlimit="10"/>
<path d="M46.8076 94.1274H139.572" stroke="#DFBE71" stroke-miterlimit="10"/>
<path d="M60.3682 127.084L125.974 61.1707" stroke="#DFBE71" stroke-miterlimit="10"/>
<path d="M0.5 159.03V0.5H186.775" stroke="#DFBE71" stroke-miterlimit="10"/>
<path d="M186.775 26.1914V187.755H0.5" stroke="#DFBE71" stroke-miterlimit="10"/>
<path d="M24.4549 102.666C29.1255 102.666 32.9118 98.8601 32.9118 94.1649C32.9118 89.4698 29.1255 85.6636 24.4549 85.6636C19.7843 85.6636 15.998 89.4698 15.998 94.1649C15.998 98.8601 19.7843 102.666 24.4549 102.666Z" stroke="#DFBE71" stroke-miterlimit="10"/>
<path d="M161.888 102.666C166.559 102.666 170.345 98.8601 170.345 94.1649C170.345 89.4698 166.559 85.6636 161.888 85.6636C157.217 85.6636 153.431 89.4698 153.431 94.1649C153.431 98.8601 157.217 102.666 161.888 102.666Z" stroke="#DFBE71" stroke-miterlimit="10"/>
<path d="M44.6097 151.502C49.2803 151.502 53.0666 147.696 53.0666 143.001C53.0666 138.306 49.2803 134.5 44.6097 134.5C39.9391 134.5 36.1528 138.306 36.1528 143.001C36.1528 147.696 39.9391 151.502 44.6097 151.502Z" stroke="#DFBE71" stroke-miterlimit="10"/>
<path d="M141.77 53.8301C146.441 53.8301 150.227 50.0239 150.227 45.3288C150.227 40.6336 146.441 36.8274 141.77 36.8274C137.1 36.8274 133.313 40.6336 133.313 45.3288C133.313 50.0239 137.1 53.8301 141.77 53.8301Z" stroke="#DFBE71" stroke-miterlimit="10"/>
<path d="M93.1903 171.726C97.8609 171.726 101.647 167.92 101.647 163.225C101.647 158.529 97.8609 154.723 93.1903 154.723C88.5197 154.723 84.7334 158.529 84.7334 163.225C84.7334 167.92 88.5197 171.726 93.1903 171.726Z" stroke="#DFBE71" stroke-miterlimit="10"/>
<path d="M93.1903 33.5692C97.8609 33.5692 101.647 29.763 101.647 25.0678C101.647 20.3726 97.8609 16.5664 93.1903 16.5664C88.5197 16.5664 84.7334 20.3726 84.7334 25.0678C84.7334 29.763 88.5197 33.5692 93.1903 33.5692Z" stroke="#DFBE71" stroke-miterlimit="10"/>
<path d="M141.77 151.502C146.441 151.502 150.227 147.696 150.227 143.001C150.227 138.306 146.441 134.5 141.77 134.5C137.1 134.5 133.313 138.306 133.313 143.001C133.313 147.696 137.1 151.502 141.77 151.502Z" stroke="#DFBE71" stroke-miterlimit="10"/>
<path d="M44.6097 53.8301C49.2803 53.8301 53.0666 50.0239 53.0666 45.3288C53.0666 40.6336 49.2803 36.8274 44.6097 36.8274C39.9391 36.8274 36.1528 40.6336 36.1528 45.3288C36.1528 50.0239 39.9391 53.8301 44.6097 53.8301Z" stroke="#DFBE71" stroke-miterlimit="10"/>
</svg>
