<svg width="187" height="188" viewBox="0 0 187 188" fill="none" xmlns="http://www.w3.org/2000/svg">
<path d="M92.8214 152.388C125.175 152.388 151.402 126.151 151.402 93.7863C151.402 61.4213 125.175 35.1843 92.8214 35.1843C60.4682 35.1843 34.2407 61.4213 34.2407 93.7863C34.2407 126.151 60.4682 152.388 92.8214 152.388Z" stroke="#DFBE71" stroke-miterlimit="10"/>
<path d="M9.10276 67.4098C13.8539 67.4098 17.7055 63.5568 17.7055 58.8039C17.7055 54.051 13.8539 50.198 9.10276 50.198C4.35159 50.198 0.5 54.051 0.5 58.8039C0.5 63.5568 4.35159 67.4098 9.10276 67.4098Z" stroke="#DFBE71" stroke-miterlimit="10"/>
<path d="M177.173 67.4098C181.924 67.4098 185.776 63.5568 185.776 58.8039C185.776 54.051 181.924 50.198 177.173 50.198C172.422 50.198 168.57 54.051 168.57 58.8039C168.57 63.5568 172.422 67.4098 177.173 67.4098Z" stroke="#DFBE71" stroke-miterlimit="10"/>
<path d="M128.126 17.7118C132.877 17.7118 136.729 13.8588 136.729 9.10588C136.729 4.35298 132.877 0.5 128.126 0.5C123.375 0.5 119.523 4.35298 119.523 9.10588C119.523 13.8588 123.375 17.7118 128.126 17.7118Z" stroke="#DFBE71" stroke-miterlimit="10"/>
<path d="M59.2297 17.7118C63.9809 17.7118 67.8325 13.8588 67.8325 9.10588C67.8325 4.35298 63.9809 0.5 59.2297 0.5C54.4785 0.5 50.627 4.35298 50.627 9.10588C50.627 13.8588 54.4785 17.7118 59.2297 17.7118Z" stroke="#DFBE71" stroke-miterlimit="10"/>
<path d="M177.173 137.076C181.924 137.076 185.776 133.224 185.776 128.471C185.776 123.718 181.924 119.865 177.173 119.865C172.422 119.865 168.57 123.718 168.57 128.471C168.57 133.224 172.422 137.076 177.173 137.076Z" stroke="#DFBE71" stroke-miterlimit="10"/>
<path d="M9.10276 137.076C13.8539 137.076 17.7055 133.224 17.7055 128.471C17.7055 123.718 13.8539 119.865 9.10276 119.865C4.35159 119.865 0.5 123.718 0.5 128.471C0.5 133.224 4.35159 137.076 9.10276 137.076Z" stroke="#DFBE71" stroke-miterlimit="10"/>
<path d="M58.1496 186.775C62.9008 186.775 66.7524 182.922 66.7524 178.169C66.7524 173.416 62.9008 169.563 58.1496 169.563C53.3985 169.563 49.5469 173.416 49.5469 178.169C49.5469 182.922 53.3985 186.775 58.1496 186.775Z" stroke="#DFBE71" stroke-miterlimit="10"/>
<path d="M127.046 186.775C131.797 186.775 135.649 182.922 135.649 178.169C135.649 173.416 131.797 169.563 127.046 169.563C122.295 169.563 118.443 173.416 118.443 178.169C118.443 182.922 122.295 186.775 127.046 186.775Z" stroke="#DFBE71" stroke-miterlimit="10"/>
<path d="M92.8213 5.45483V182.08" stroke="#DFBE71" stroke-miterlimit="10"/>
<path d="M30.4048 31.3098L155.238 156.225" stroke="#DFBE71" stroke-miterlimit="10"/>
<path d="M4.55908 93.7864H181.083" stroke="#DFBE71" stroke-miterlimit="10"/>
<path d="M30.4048 156.225L155.238 31.3098" stroke="#DFBE71" stroke-miterlimit="10"/>
</svg>
