<svg width="34" height="27" viewBox="0 0 34 27" fill="none" xmlns="http://www.w3.org/2000/svg">
<path d="M31.6587 0L34 2.69004C30.8782 4.94834 28.6387 7.14022 27.2814 9.26568C25.992 11.3911 25.3473 13.7159 25.3473 16.2398C26.2295 15.7085 27.2475 15.4428 28.4012 15.4428C29.9621 15.4428 31.2176 15.9742 32.1677 17.0369C33.1856 18.0332 33.6946 19.3284 33.6946 20.9225C33.6946 22.7159 33.0499 24.1771 31.7605 25.3063C30.5389 26.4354 28.8762 27 26.7725 27C21.9541 27 19.5449 23.8782 19.5449 17.6347C19.5449 15.3764 19.9182 13.3506 20.6647 11.5572C21.4112 9.69742 22.6667 7.87085 24.4311 6.07749C26.1956 4.21771 28.6048 2.19188 31.6587 0ZM12.1138 0L14.4551 2.69004C11.3333 4.94834 9.09381 7.14022 7.73653 9.26568C6.44711 11.3911 5.80239 13.7159 5.80239 16.2398C6.68463 15.7085 7.70259 15.4428 8.85629 15.4428C10.4172 15.4428 11.6727 15.9742 12.6228 17.0369C13.6407 18.0332 14.1497 19.3284 14.1497 20.9225C14.1497 22.7159 13.505 24.1771 12.2156 25.3063C10.994 26.4354 9.33134 27 7.22754 27C2.40918 27 0 23.8782 0 17.6347C0 15.3764 0.373253 13.3506 1.11976 11.5572C1.86627 9.69742 3.12176 7.87085 4.88623 6.07749C6.6507 4.21771 9.05988 2.19188 12.1138 0Z" fill="white"/>
</svg>
