<svg width="38" height="24" viewBox="0 0 38 24" fill="none" xmlns="http://www.w3.org/2000/svg">
<path opacity="0.07" d="M35 0H3C1.3 0 0 1.3 0 3V21C0 22.7 1.4 24 3 24H35C36.7 24 38 22.7 38 21V3C38 1.3 36.6 0 35 0Z" fill="black"/>
<path d="M35 1C36.1 1 37 1.9 37 3V21C37 22.1 36.1 23 35 23H3C1.9 23 1 22.1 1 21V3C1 1.9 1.9 1 3 1H35Z" fill="#006FCF"/>
<path d="M22.0122 19.9361V11.5151L37.0002 11.5281V13.8541L35.2682 15.7061L37.0002 17.5731V19.9481H34.2342L32.7642 18.3261L31.3042 19.9541L22.0122 19.9341V19.9361Z" fill="white"/>
<path d="M23.0132 19.0119V12.4419H28.5852V13.9549H24.8172V14.9829H28.4952V16.4709H24.8172V17.4809H28.5852V19.0119H23.0132Z" fill="#006FCF"/>
<path d="M28.5571 19.0119L31.6401 15.7229L28.5571 12.4409H30.9431L32.8271 14.5239L34.7171 12.4419H37.0001V12.4929L33.9831 15.7229L37.0001 18.9199V19.0129H34.6931L32.7761 16.9099L30.8781 19.0139H28.5571V19.0119Z" fill="#006FCF"/>
<path d="M22.71 4.04004H26.324L27.593 6.92104V4.04004H32.053L32.823 6.19904L33.594 4.04004H37V12.461H19L22.71 4.04004Z" fill="white"/>
<path d="M23.395 4.95508L20.479 11.5211H22.479L23.029 10.2061H26.009L26.559 11.5211H28.609L25.705 4.95508H23.395ZM23.645 8.73208L24.52 6.64208L25.393 8.73208H23.645Z" fill="#006FCF"/>
<path d="M28.5811 11.5201V4.95312L31.3921 4.96312L32.8401 9.00012L34.2961 4.95412H37.0001V11.5191L35.2601 11.5351V7.02513L33.6161 11.5191H32.0261L30.3501 7.01013V11.5201H28.5821H28.5811Z" fill="#006FCF"/>
</svg>
