<svg width="196" height="108" viewBox="0 0 196 108" fill="none" xmlns="http://www.w3.org/2000/svg">
<path d="M50.3912 30.6281C50.3912 32.2379 49.056 33.5447 47.4114 33.5447C45.7668 33.5447 44.4404 32.2379 44.4404 30.6281C44.4404 29.0184 45.7756 27.7202 47.4114 27.7202C49.0472 27.7202 50.3912 29.0271 50.3912 30.6281Z" fill="white"/>
<path d="M151.077 30.6281C151.077 32.2379 149.742 33.5447 148.097 33.5447C146.452 33.5447 145.126 32.2379 145.126 30.6281C145.126 29.0184 146.461 27.7202 148.097 27.7202C149.733 27.7202 151.077 29.0271 151.077 30.6281Z" fill="white"/>
<path d="M97.7587 24.5095C94.3103 24.5095 91.5073 27.253 91.5073 30.6283C91.5073 34.0036 94.3103 36.7471 97.7587 36.7471C101.207 36.7471 104.01 34.0036 104.01 30.6283C104.01 27.253 101.207 24.5095 97.7587 24.5095ZM97.7587 39.3694C92.8336 39.3694 88.8281 35.4489 88.8281 30.6283C88.8281 25.8077 92.8336 21.8872 97.7587 21.8872C102.684 21.8872 106.689 25.8077 106.689 30.6283C106.689 35.4489 102.684 39.3694 97.7587 39.3694Z" fill="white"/>
<path d="M97.7587 8.51575C85.3001 8.51575 75.1582 18.4338 75.1582 30.6368C75.1582 42.8397 85.3001 52.7578 97.7587 52.7578C110.217 52.7578 120.359 42.8397 120.359 30.6368C120.359 18.4338 110.217 8.51575 97.7587 8.51575ZM97.7587 55.3714C83.8235 55.3714 72.479 44.2763 72.479 30.6281C72.479 16.9799 83.8146 5.88477 97.7587 5.88477C111.703 5.88477 123.038 16.9799 123.038 30.6281C123.038 44.2763 111.703 55.3714 97.7587 55.3714Z" fill="white"/>
<path d="M97.7587 2.62219C81.9755 2.62219 69.1367 15.1886 69.1367 30.6369C69.1367 46.0853 81.9755 58.643 97.7587 58.643C113.542 58.643 126.372 46.0766 126.372 30.6369C126.372 15.1972 113.533 2.62219 97.7587 2.62219ZM97.7587 61.2654C89.4029 61.2654 81.5422 58.0805 75.6268 52.2906C69.7114 46.5007 66.4575 38.8155 66.4575 30.6283C66.4575 22.4411 69.7114 14.7559 75.6268 8.96597C81.5334 3.17608 89.3941 -0.00878906 97.7587 -0.00878906C106.123 -0.00878906 113.975 3.17608 119.891 8.96597C125.797 14.7472 129.06 22.4411 129.06 30.6283C129.06 38.8155 125.806 46.5007 119.891 52.2906C113.984 58.0718 106.123 61.2654 97.7587 61.2654Z" fill="white"/>
<path d="M18.5596 86.6405L20.779 85.0827C21.5747 86.4501 23.0691 87.2377 24.7933 87.2377C26.8093 87.2377 28.3301 86.2943 28.3301 84.9529C28.3301 83.3345 25.9781 82.3478 23.8825 81.4737C21.7781 80.5563 19.4438 79.4918 19.4438 76.7397C19.4438 73.9875 21.9903 71.8672 25.2177 71.8672C27.7731 71.8672 29.683 73.0702 30.4169 75.0001L28.3301 76.4108C27.7731 75.2251 26.544 74.5587 25.2442 74.5587C23.5996 74.5587 22.2821 75.5627 22.2821 76.8003C22.2821 78.1677 23.9356 78.661 26.1196 79.5784C28.9579 80.7987 31.1596 82.1315 31.1596 84.9009C31.1596 88.0166 28.4009 90.0158 24.7668 90.0158C21.8223 90.0158 19.5853 88.6656 18.5596 86.6405Z" fill="white"/>
<path d="M45.9349 74.9049H41.1337V89.7215H38.313V74.9049H33.5117V72.1787H45.9349V74.9049Z" fill="white"/>
<path d="M54.9449 80.6432C56.6337 80.6519 58.0485 79.3191 58.0485 77.7526C58.0485 76.1861 56.6161 74.9139 54.9449 74.9139H52.1243V80.6519H54.9449V80.6432ZM59.1626 89.7132L54.3348 82.9193H52.1331V89.7132H49.3213V72.1704H54.883C58.2165 72.1704 60.9487 74.6802 60.9487 77.8045C60.9487 80.072 59.4632 82.0366 57.403 82.6943L62.6199 89.7132H59.1626Z" fill="white"/>
<path d="M80.481 80.9459C80.481 77.4755 77.5807 74.6454 74.0439 74.6454C70.507 74.6454 67.6245 77.4755 67.6245 80.9459C67.6245 84.4164 70.507 87.2118 74.0439 87.2118C77.5807 87.2118 80.481 84.3904 80.481 80.9459ZM64.7861 80.9719C64.7861 75.9696 68.9419 71.876 74.0439 71.876C79.1458 71.876 83.3193 75.9696 83.3193 80.9719C83.3193 85.9742 79.137 90.0072 74.035 90.0072C68.9331 90.0072 64.7861 85.9396 64.7861 80.9719Z" fill="white"/>
<path d="M104.063 81.5085C104.063 86.7185 100.19 90.0072 95.539 90.0072C90.3222 90.0072 86.1929 85.9396 86.1929 80.9632C86.1929 75.9869 90.3487 71.876 95.4418 71.876C97.6965 71.8846 100.278 72.9491 101.967 74.5675L100.402 76.8523C98.9963 75.5022 97.1129 74.6541 95.4064 74.6541C92.1348 74.6541 89.0489 77.3283 89.0489 80.9632C89.0489 84.3991 91.843 87.2291 95.6628 87.2291C98.7399 87.2291 101.057 85.3944 101.057 82.7115V82.6595H95.5125V80.1324H103.992C104.036 80.5305 104.072 81.0152 104.072 81.4998" fill="white"/>
<path d="M135.639 86.978V89.7215H124.833V72.1787H127.645V86.978H135.639Z" fill="white"/>
<path d="M149.83 86.978V89.7215H139.016V72.1787H141.837V86.978H149.83Z" fill="white"/>
<path d="M156.029 74.8876V79.3793H162.811V82.1228H156.029V86.978H163.889V89.7128H153.208V72.1787H163.889V74.8876H156.029Z" fill="white"/>
<path d="M173.58 80.6432C175.269 80.6519 176.684 79.3191 176.684 77.7526C176.684 76.1861 175.251 74.9139 173.58 74.9139H170.76V80.6519H173.58V80.6432ZM177.798 89.7132L172.97 82.9193H170.768V89.7132H167.957V72.1704H173.518C176.852 72.1704 179.584 74.6802 179.584 77.8045C179.584 80.072 178.098 82.0366 176.038 82.6943L181.255 89.7132H177.798Z" fill="white"/>
<path d="M186.764 82.218L180.813 72.1787H183.987L188.152 79.1629L192.334 72.1787H195.5L189.558 82.218V89.7128H186.764V82.218Z" fill="white"/>
<path d="M3.05054 89.713H0L8.42657 71.8154H8.59457L17.0211 89.713H13.9794L8.51499 77.8303L3.05054 89.713Z" fill="white"/>
<path d="M6.70215 86.303L8.50595 82.6162L10.3186 86.303H6.70215Z" fill="white"/>
<path d="M107.724 89.713H104.682L113.109 71.8154H113.277L121.703 89.713H118.653L113.197 77.8303L107.724 89.713Z" fill="white"/>
<path d="M111.385 86.303L113.189 82.6162L115.001 86.303H111.385Z" fill="white"/>
<path d="M90.4726 106.884V107.888H86.5024V101.449H87.537V106.884H90.4726Z" fill="white"/>
<path d="M92.1703 105.136L89.9863 101.449H91.1535L92.6832 104.01L94.2129 101.449H95.38L93.196 105.136V107.888H92.1703V105.136Z" fill="white"/>
<path d="M101.269 104.668C101.269 103.396 100.208 102.357 98.908 102.357C97.6082 102.357 96.556 103.396 96.556 104.668C96.556 105.94 97.6082 106.97 98.908 106.97C100.208 106.97 101.269 105.94 101.269 104.668ZM95.5215 104.677C95.5215 102.842 97.0423 101.345 98.9169 101.345C100.791 101.345 102.321 102.842 102.321 104.677C102.321 106.511 100.791 107.991 98.9169 107.991C97.0423 107.991 95.5215 106.503 95.5215 104.677Z" fill="white"/>
<path d="M109.006 101.44V108H108.953L104.753 103.699V107.896H103.718V101.345H103.771L107.971 105.629V101.44H109.006Z" fill="white"/>
<path d="M72.4789 104.867H35.3242V105.785H72.4789V104.867Z" fill="white"/>
<path d="M160.184 104.867H123.029V105.785H160.184V104.867Z" fill="white"/>
</svg>
